<svg version="1.1" id="Layer_1" xmlns="http://www.w3.org/2000/svg" xmlns:xlink="http://www.w3.org/1999/xlink" x="0px" y="0px"
	 viewBox="0 0 32 32" style="enable-background:new 0 0 32 32;" xml:space="preserve">
<style type="text/css">
	.st0{fill:#F9690E;}
	.st1{fill:#FFFFFF;}
</style>
<circle id="XMLID_12_" class="st0" cx="15.7" cy="16" r="12.8"/>
<g id="XMLID_8_">
	<path id="XMLID_9_" class="st1" d="M19.7,19.2h4.2v0.7c0,3.4-2.6,5.1-7.7,5.1c-3.5,0-5.8-0.6-6.8-1.8c-1.1-1.2-1.6-3.7-1.6-7.5
		c0-3.4,0.6-5.7,1.7-6.9S12.8,7,16.1,7c3.1,0,5.2,0.6,6.3,1.7c1.1,1.1,1.6,3.4,1.6,6.7v1.3H12.1c0,0.4,0,0.6,0,0.8
		c0,1.7,0.3,2.9,0.8,3.4c0.5,0.6,1.6,0.9,3.2,0.9c1.5,0,2.5-0.2,3-0.5C19.5,21,19.7,20.3,19.7,19.2z M19.8,14.2v-0.7
		c0-1.4-0.2-2.3-0.7-2.7s-1.5-0.6-3.1-0.6s-2.6,0.3-3,0.8c-0.5,0.5-0.7,1.6-0.7,3.3h7.5V14.2z"/>
</g>
</svg>
